<?xml version="1.0" encoding="UTF-8" standalone="no"?>
<!-- Created with Inkscape (http://www.inkscape.org/) -->

<svg
   xmlns:dc="http://purl.org/dc/elements/1.1/"
   xmlns:cc="http://creativecommons.org/ns#"
   xmlns:rdf="http://www.w3.org/1999/02/22-rdf-syntax-ns#"
   xmlns:svg="http://www.w3.org/2000/svg"
   xmlns="http://www.w3.org/2000/svg"
   xmlns:inkscape="http://www.inkscape.org/namespaces/inkscape"
   version="1.1"
   width="1583.85"
   height="332.28751"
   id="svg2"
   xml:space="preserve"><metadata
     id="metadata8"><rdf:RDF><cc:Work
         rdf:about=""><dc:format>image/svg+xml</dc:format><dc:type
           rdf:resource="http://purl.org/dc/dcmitype/StillImage" /></cc:Work></rdf:RDF></metadata><defs
     id="defs6"><clipPath
       id="clipPath18"><path
         d="m 0,0 12670.8,0 0,2658 L 0,2658 0,0 z"
         inkscape:connector-curvature="0"
         id="path20" /></clipPath></defs><g
     transform="matrix(1.25,0,0,-1.25,0,332.2875)"
     id="g10"><g
       transform="scale(0.1,0.1)"
       id="g12"><g
         id="g14"><g
           clip-path="url(#clipPath18)"
           id="g16"><path
             d="m 12256.1,758.352 c -96.6,-160.711 -231.1,-287.403 -403.6,-380.063 -172.5,-92.66 -360.1,-138.988 -562.8,-138.988 -303.5,0 -562.8,100.719 -778,302.168 -215.1,201.582 -322.6,448.531 -322.6,740.991 0,197.62 48.5,376.79 145.7,537.58 97.3,160.71 232.3,288.57 405.4,383.41 173.1,94.98 356.2,142.41 549.5,142.41 196.8,0 382.9,-47.43 558.3,-142.41 175.4,-94.84 311.5,-221.26 408.1,-379.24 96.6,-157.99 144.9,-334.63 144.9,-529.99 0,-196.52 -48.3,-375.142 -144.9,-535.868 z m -2723.79,0 C 9435.76,597.641 9301.22,470.949 9128.75,378.289 8956.27,285.629 8768.63,239.301 8565.96,239.301 8262.49,239.301 8003.17,340.02 7788,541.469 7572.88,743.051 7465.32,990 7465.32,1282.46 c 0,197.62 48.6,376.79 145.76,537.58 97.24,160.71 232.33,288.57 405.41,383.41 173.09,94.98 356.22,142.41 549.47,142.41 196.79,0 382.87,-47.43 558.35,-142.41 175.41,-94.84 311.45,-221.26 408,-379.24 96.63,-157.99 144.94,-334.63 144.94,-529.99 0,-196.52 -48.31,-375.142 -144.94,-535.868 z m -2723.66,0 C 6712.1,597.641 6577.55,470.949 6405.08,378.289 6232.61,285.629 6044.97,239.301 5842.29,239.301 c -303.46,0 -562.78,100.719 -777.96,302.168 -215.11,201.582 -322.67,448.531 -322.67,740.991 0,197.62 48.58,376.79 145.75,537.58 97.24,160.71 232.34,288.57 405.42,383.41 173.09,94.98 356.22,142.41 549.46,142.41 196.8,0 382.87,-47.43 558.34,-142.41 175.41,-94.84 311.47,-221.26 408.02,-379.24 96.62,-157.99 144.93,-334.63 144.93,-529.99 0,-196.52 -48.31,-375.142 -144.93,-535.868 z M 3652.48,603.109 c 0,0 326.56,221.602 781.38,688.101 13.68,14.04 26.66,28.06 39.03,42.06 -0.65,-17.12 -1.07,-34.31 -1.07,-51.63 0,-252.78 67.72,-478.949 203.1,-678.531 l -1022.44,0 z M 1478.78,234.25 c -221.32,0 -424.89,47.699 -610.682,143.09 -185.868,95.39 -331.414,226.449 -436.715,393.18 -105.367,166.73 -157.985,342.75 -157.985,527.94 0,180.66 50.84,352.19 152.657,514.47 101.75,162.29 245.246,290.82 430.492,385.67 185.183,94.78 380.203,142.2 584.923,142.2 164.48,0 333.47,-34.85 506.83,-104.55 144.64,-58.13 279.56,-139.07 404.81,-242.64 -65.06,-164.24 -65.1,-294.24 -65.1,-294.24 l 769.7,11.68 c 11.65,396.53 536.48,454.82 711.41,338.17 174.93,-116.64 186.58,-268.2 -34.99,-524.78 C 3601.46,1370.8 3079.2,987.281 2681.4,704.199 c 66.84,157.231 100.93,336.331 102.19,537.341 l -1125.5,0 0,-237.59 832.56,0 C 2456.35,776.398 2346.26,591.211 2160.47,448.398 1974.67,305.59 1747.4,234.25 1478.78,234.25 z M 12271.2,2212 c -266.5,248.73 -597.5,373.09 -993.1,373.09 -243.9,0 -470.7,-57.2 -680.3,-171.45 -209.7,-114.39 -375.1,-272.5 -496.5,-474.36 -86.5,-143.89 -141.98,-296.54 -166.86,-457.91 -38.86,282.41 -167.83,525.94 -387.02,730.63 -266.5,248.73 -597.5,373.09 -993.01,373.09 -243.95,0 -470.74,-57.2 -680.39,-171.45 -209.64,-114.39 -375.07,-272.5 -496.5,-474.36 -86.41,-143.82 -141.89,-296.39 -166.78,-457.68 -38.9,282.31 -167.85,525.77 -386.98,730.4 -266.5,248.73 -597.51,373.09 -993.01,373.09 -243.95,0 -470.75,-57.2 -680.39,-171.45 -204.36,-111.51 -366.59,-264.69 -487.12,-459.31 -41.74,193.41 -166.05,352.12 -276.05,444.76 -221.6,186.62 -862.98,396.53 -1481.08,139.95 -194.74,-80.85 -328.09,-194.11 -419.45,-311.33 -140.43,106.78 -283.47,188.25 -429.17,244.42 -195.29,75.3 -403.57,112.96 -624.9,112.96 -273.4,0 -518.371,-56.65 -734.914,-169.8 C 481.059,2302.05 310.641,2145.1 186.41,1944.27 62.1133,1743.44 0,1526.56 0,1293.4 0,979.898 108.238,703.828 324.855,465.141 606.52,155.051 988.77,0 1471.68,0 c 285.45,0 529.59,57.6289 732.42,172.898 l 0,-157.1792 2509.65,0 0,533.2932 c 46.03,-60.653 98.58,-118.723 157.74,-174.203 C 5137.92,124.918 5464.82,0 5852.07,0 c 382.52,0 706.69,125.461 972.57,376.52 215.08,202.968 343.09,441.75 384.19,716.31 39.72,-274.342 168.45,-513.709 386.33,-718.021 C 7861.59,124.918 8188.49,0 8575.73,0 c 382.52,0 706.69,125.461 972.58,376.52 215.13,203.019 343.16,441.878 384.22,716.54 39.69,-274.431 168.37,-513.888 386.37,-718.251 C 10585.3,124.918 10912.2,0 11299.5,0 c 382.5,0 706.7,125.461 972.5,376.52 265.9,250.91 398.8,556.558 398.8,916.88 0,363.66 -133.2,669.8 -399.6,918.6"
             inkscape:connector-curvature="0"
             id="path22"
             style="fill:#231f20;fill-opacity:1;fill-rule:nonzero;stroke:none" /></g></g></g></g></svg>